<?xml version="1.0" encoding="UTF-8"?>
<svg id="svg23697" xmlns="http://www.w3.org/2000/svg" viewBox="0 0 390.55 307.19">
  <defs>
    <style>
      .cls-1 {
        fill: #fa7e0a;
      }

      .cls-2 {
        fill: #fff;
      }
    </style>
  </defs>
  <g id="layer1">
    <g id="g5261">
      <g id="g5233">
        <path id="path5213" class="cls-1" d="M302.22,168.35c-5.64,3.75-154.67-63.43-155.23-69.98-.57-6.54,134.75-96.43,140.96-93.63,6.21,2.8,19.91,159.86,14.27,163.62h0Z"/>
        <path id="path5213-6" class="cls-1" d="M84.07,169.13c5.64,3.75,154.67-63.43,155.23-69.98,.57-6.54-134.75-96.43-140.96-93.63-6.21,2.8-19.91,159.86-14.27,163.62h0Z"/>
      </g>
      <path id="path5067" class="cls-1" d="M337.2,198.15c0,54.22-63.26,98.18-141.29,98.18S54.62,252.37,54.62,198.15s63.26-98.18,141.29-98.18,141.29,43.95,141.29,98.18Z"/>
      <path id="path4923" class="cls-1" d="M202.56,160.61c0,49.06-41.54,88.82-92.78,88.82S17.01,209.67,17.01,160.61,58.55,71.79,109.79,71.79s92.78,39.77,92.78,88.82Z"/>
      <path id="path4923-6" class="cls-1" d="M373.15,162.17c0,49.06-41.54,88.82-92.78,88.82s-92.78-39.77-92.78-88.82,41.54-88.82,92.78-88.82,92.78,39.77,92.78,88.82Z"/>
      <path id="path4923-0" class="cls-2" d="M181.6,163.73c0,39.59-30.15,71.68-67.34,71.68s-67.34-32.09-67.34-71.68,30.15-71.68,67.34-71.68,67.34,32.09,67.34,71.68Z"/>
      <path id="path4923-0-8" class="cls-2" d="M344.71,165.29c0,39.59-30.15,71.68-67.34,71.68s-67.34-32.09-67.34-71.68,30.15-71.68,67.34-71.68,67.34,32.09,67.34,71.68Z"/>
      <path id="path4923-0-0" class="cls-1" d="M171.13,166.84c0,24.96-19.43,45.19-43.4,45.19s-43.4-20.23-43.4-45.19,19.43-45.19,43.4-45.19,43.4,20.23,43.4,45.19Z"/>
      <path id="path4923-0-0-1" class="cls-1" d="M311.79,168.4c0,24.96-19.43,45.19-43.4,45.19s-43.4-20.23-43.4-45.19,19.43-45.19,43.4-45.19,43.4,20.23,43.4,45.19Z"/>
      <path id="path4923-0-0-2" class="cls-2" d="M263.91,162.16c0,9.47-7.37,17.14-16.46,17.14s-16.46-7.67-16.46-17.14,7.37-17.14,16.46-17.14,16.46,7.67,16.46,17.14Z"/>
      <path id="path4923-0-0-2-5" class="cls-2" d="M159.16,162.16c0,9.47-7.37,17.14-16.46,17.14s-16.46-7.67-16.46-17.14,7.37-17.14,16.46-17.14,16.46,7.67,16.46,17.14Z"/>
      <path id="path5065" class="cls-2" d="M214.04,221.07c.68,1.75-17.74,42.24-19.19,42.18-1.45-.07-17.84-42.16-17.08-43.85,.77-1.69,35.58-.08,36.27,1.67h0Z"/>
    </g>
  </g>
</svg>